<?xml version="1.0" encoding="UTF-8" standalone="no" ?>
<!DOCTYPE svg PUBLIC "-//W3C//DTD SVG 1.1//EN" "http://www.w3.org/Graphics/SVG/1.1/DTD/svg11.dtd">
<svg xmlns="http://www.w3.org/2000/svg" xmlns:xlink="http://www.w3.org/1999/xlink" version="1.1" width="347.375" height="123.68" xml:space="preserve">
<desc>Created with Fabric.js 1.6.0-rc.1</desc>
<defs></defs>
<g style="stroke: none; stroke-width: 1; stroke-dasharray: none; stroke-linecap: butt; stroke-linejoin: miter; stroke-miterlimit: 10; fill: none; fill-rule: nonzero; opacity: 1;" transform="translate(10 10) scale(0.54 0.54)" >
  <path d="M 340.125 266.5 l -38 -20.5 l -211.5 0.5 l 14 -14 h 220 l 33 15.5 z" style="stroke: none; stroke-width: 1; stroke-dasharray: none; stroke-linecap: butt; stroke-linejoin: miter; stroke-miterlimit: 10; fill: #357be8; fill-rule: nonzero; opacity: 1;" transform=" matrix(1 0 0 1 -90.625 -225.5) " stroke-linecap="round" />
  <path d="M 121.125 282.5 l 203 -19.5 l 14 6.5 l -169 48.5 z M 116.625 277.5 l 203.5 -17 l -19.5 -11 h -191 l -8 11 z M 329.625 287 l 5 -12.5 l -160 50.5 l 39.5 29.5 z M 326.625 293.5 l -106.5 65 l 25 20 l 75 -60.5 z M 320.125 354.5 v -30 l -69.5 59 l 34.75 10 z M 320.125 359 l -28 34.5 l 62.5 22 z M 446.375 267 l 38 -20.5 l 211.5 0.5 l -14 -14 h -220 l -33 15.5 z" style="stroke: none; stroke-width: 1; stroke-dasharray: none; stroke-linecap: butt; stroke-linejoin: miter; stroke-miterlimit: 10; fill: #357be8; fill-rule: nonzero; opacity: 1;" transform=" matrix(1 0 0 1 -90.625 -225.5) " stroke-linecap="round" />
  <path d="M 665.375 283 l -203 -19.5 l -14 6.5 l 169 48.5 z M 669.875 278 l -203.5 -17 l 19.5 -11 h 191 l 8 11 z M 456.875 287.5 l -5 -12.5 l 160 50.5 l -39.5 29.5 z M 459.875 294 l 106.5 65 l -25 20 l -75 -60.5 z M 466.375 355 v -30 l 69.5 59 l -34.75 10 z M 466.375 359.5 l 28 34.5 l -62.5 22 z" style="stroke: none; stroke-width: 1; stroke-dasharray: none; stroke-linecap: butt; stroke-linejoin: miter; stroke-miterlimit: 10; fill: #357be8; fill-rule: nonzero; opacity: 1;" transform=" matrix(1 0 0 1 -90.625 -225.5) " stroke-linecap="round" />
  <circle cx="394.13" cy="321" r="95.5" style="stroke: none; stroke-width: 1; stroke-dasharray: none; stroke-linecap: butt; stroke-linejoin: miter; stroke-miterlimit: 10; fill: #fff; fill-rule: nonzero; opacity: 1;" transform="  matrix(1 0 0 1 -90.625 -225.5) "/>
  <circle cx="394.13" cy="321" r="83.5" style="stroke: none; stroke-width: 1; stroke-dasharray: none; stroke-linecap: butt; stroke-linejoin: miter; stroke-miterlimit: 10; fill: #eaa536; fill-rule: nonzero; opacity: 1;" transform="  matrix(1 0 0 1 -90.625 -225.5) "/>
  <circle cx="394.125" cy="320.995" r="58.425" style="stroke: none; stroke-width: 1; stroke-dasharray: none; stroke-linecap: butt; stroke-linejoin: miter; stroke-miterlimit: 10; fill: #fff; fill-rule: nonzero; opacity: 1;" transform="  matrix(1 0 0 1 -90.625 -225.5) "/>
</g>
  <g transform="translate(174.48 71.16) scale(1.11 1.11)">
   <text font-family="Merkin" font-size="40" font-weight="normal" style="stroke: none; stroke-width: 1; stroke-dasharray: none; stroke-linecap: butt; stroke-linejoin: miter; stroke-miterlimit: 10; fill: #357bea; fill-rule: nonzero; opacity: 1;" ><tspan x="-16.92" y="8.98" style="stroke: none; stroke-width: 0; stroke-dasharray: none; stroke-linecap: butt; stroke-linejoin: miter; stroke-miterlimit: 4; fill: #357bea; fill-rule: ; opacity: 1;">H</tspan></text>
 </g>
</svg>